<?xml version="1.0" encoding="utf-8"?>
<!-- Generator: Adobe Illustrator 16.0.0, SVG Export Plug-In . SVG Version: 6.00 Build 0)  -->
<!DOCTYPE svg PUBLIC "-//W3C//DTD SVG 1.0//EN" "http://www.w3.org/TR/2001/REC-SVG-20010904/DTD/svg10.dtd">
<svg version="1.0" id="Layer_1" xmlns="http://www.w3.org/2000/svg" xmlns:xlink="http://www.w3.org/1999/xlink" x="0px" y="0px"
	 width="992.778px" height="264.621px" viewBox="0 0 992.778 264.621" enable-background="new 0 0 992.778 264.621"
	 xml:space="preserve">
<g>
	<path fill="#E30613" d="M696.034,116.955h-12.655c0-57.511-46.787-104.299-104.297-104.299V0
		C643.57,0,696.034,52.466,696.034,116.955z"/>
	<path fill="#E30613" d="M669.17,116.955h-12.655c0-42.693-34.736-77.426-77.433-77.426V26.873
		C628.757,26.873,669.17,67.284,669.17,116.955z"/>
	<path fill="#F6F6F6" d="M577.585,56.375h-0.002c-16.29,0-31.605,6.347-43.124,17.866c-11.523,11.521-17.866,26.838-17.866,43.13
		v60.995h60.992c33.636,0,60.994-27.362,60.994-60.995C638.579,83.743,611.221,56.38,577.585,56.375z"/>
	<linearGradient id="SVGID_1_" gradientUnits="userSpaceOnUse" x1="622.0918" y1="72.8467" x2="514.5936" y2="180.3449">
		<stop  offset="0" style="stop-color:#FFFFFF"/>
		<stop  offset="1" style="stop-color:#DADADA"/>
	</linearGradient>
	<path fill="url(#SVGID_1_)" d="M577.585,180.355h-62.981v-62.984c0-16.822,6.554-32.639,18.447-44.536
		c11.894-11.892,27.711-18.446,44.532-18.446c34.734,0.001,62.99,28.259,62.99,62.982
		C640.573,152.101,612.317,180.355,577.585,180.355z M518.58,176.378h59.005c32.538-0.004,59.012-26.475,59.012-59.008
		c0-32.534-26.474-59.004-59.012-59.004c-15.76,0-30.577,6.137-41.724,17.281c-11.144,11.146-17.281,25.968-17.281,41.723V176.378z"
		/>
	<path d="M609.686,112.776l0.41,0.043c2.764,0,5.348-2.242,5.348-5.003c0-2.772-0.91-5.027-3.687-5.027
		c-2.279,0-5.097,1.56-6.018,3.652c-1.038-3.566-2.735-8.87-4.751-13.146c-3.332-7.103-9.604-6.265-15.457-6.265h-3.593
		l-1.059-5.148h-13.167l-1.059,5.148h-3.548c-5.848,0.003-12.114-0.838-15.448,6.265c-2.068,4.374-3.803,9.853-4.843,13.406
		c-0.779-2.234-3.76-3.913-6.138-3.913c-2.78,0-3.687,2.254-3.687,5.027c0,2.761,2.583,5.003,5.354,5.003l0.636-0.057
		c-2.569,2.536-5.958,7.117-5.958,13.601c0,4.959,1.058,10.57,1.851,14.083v7.833c0,3.665,2.975,6.646,6.641,6.646
		c3.667-0.002,6.646-2.98,6.652-6.646v-4.373h52.275v4.373c0,3.665,2.979,6.644,6.652,6.646c3.659-0.002,6.643-2.98,6.643-6.646
		l-0.006-7.687c0.794-3.501,1.873-9.193,1.873-14.229C615.604,119.893,612.249,115.323,609.686,112.776z M552.906,95.789
		c1.151-2.402,2.405-2.952,6.826-2.952l1.619,0.008l1.741,0.027h22.438l1.753-0.027l1.646-0.008c4.404,0,5.666,0.554,6.791,2.952
		c1.116,2.359,3.064,8.157,4.203,11.738h-51.192C549.88,103.884,551.796,98.148,552.906,95.789z M550.196,131.534
		c-1.87,1.876-5.594,1.208-8.28-1.49c-2.696-2.7-3.375-6.415-1.49-8.286c1.864-1.872,5.572-1.205,8.272,1.5
		C551.396,125.949,552.064,129.667,550.196,131.534z M606.678,130.044c-2.698,2.698-6.41,3.366-8.277,1.495
		c-1.881-1.872-1.206-5.59,1.5-8.281c2.684-2.708,6.403-3.372,8.274-1.5C610.047,123.629,609.379,127.344,606.678,130.044z"/>
</g>
<g>
	<path d="M166.188,234.312c0-24.559-14.1-34.494-28.862-34.494c-20.266,0-29.655,15.84-29.655,31.41
		c0,19.592,12.212,32.34,31.133,32.34c0.167,0,0.319-0.031,0.49-0.035v0.035h24.444v-11.299H139.64
		c-9.981-0.273-18.165-5.775-18.824-17.156h45.373V234.312z M120.815,224.65c1.085-7.119,5.51-14.092,15.841-14.092
		c9.132,0,15.168,6.305,15.704,14.092H120.815z"/>
	<path d="M231.144,251.892v-50.326h-12.479v50.326h-14.879v-0.012c-9.445-0.168-15.338-6.307-15.338-17.436v-32.879h-12.479v32.209
		c0,25.496,17.712,29.793,26.575,29.793c0.423,0,28.6,0,28.6,0V251.892z"/>
	<path d="M71.305,201.566c-0.047,0-0.426,0-1.019,0c-0.603,0-0.979,0-1.026,0c-5.48,0-14.356,1.656-20.332,8.959
		c-5.96-7.303-14.839-8.959-20.326-8.959c-0.426,0-28.602,0-28.602,0v11.672v50.33h12.479v-50.33h14.878v0.018
		c9.452,0.16,15.339,6.311,15.339,17.432v0.674v32.207h12.479v-32.207v-0.674c0-11.033,5.799-17.162,15.112-17.422
		c9.309,0.26,15.105,6.389,15.105,17.422v32.881h12.485v-32.207C97.876,205.865,80.154,201.566,71.305,201.566z"/>
</g>
<polygon points="244.205,180.355 244.205,201.23 268.036,201.23 268.036,263.566 294.847,263.566 294.847,201.23 319.274,201.23 
	319.274,180.355 "/>
<rect x="487.793" y="180.355" width="26.811" height="83.211"/>
<path d="M455.722,221.267l27.233-40.912h-28.346l-14.333,22.307l-14.329-22.307h-29.965l27.225,41.371l-24.858,37.553
	l-26.338-78.924h-33.26l-27.623,83.211h26.827l4.977-17.486h23.54l5.099,17.486h52.405l14.797-23.576l14.896,23.576h29.736
	L455.722,221.267z M348.316,226.91l6.386-21.924l6.386,21.924H348.316z"/>
<g>
	<path fill="#E30613" d="M687.352,251.419H664.91l-3.465,12.047H646.76l21.368-61.879h16.584l21.616,61.879h-15.511L687.352,251.419
		z M674.481,218.583l-6.188,21.203h15.759l-5.94-21.203l-1.65-6.518h-0.247L674.481,218.583z"/>
	<path fill="#E30613" d="M752.859,263.466l-24.009-33.744l-3.712-5.529l-0.165,0.084l0.082,6.682v32.508H712.68v-61.879h11.881
		l22.028,31.93l3.713,5.527l0.165-0.082l-0.165-6.602v-30.773h12.293v61.879H752.859z"/>
	<path fill="#E30613" d="M819.935,261.156c-4.62,2.145-11.798,3.465-18.563,3.465c-21.121,0-29.371-10.809-29.371-32.012
		c0-21.615,8.993-32.094,29.866-32.094c5.858,0,12.376,1.072,17.078,2.805l-1.319,12.047c-4.373-1.65-9.9-2.641-15.016-2.641
		c-12.211,0-16.006,4.455-16.006,19.719c0,15.428,3.63,19.719,14.438,19.719c2.393,0,4.62-0.248,6.601-0.826v-21.121h12.293V261.156
		z"/>
	<path fill="#E30613" d="M854.998,264.621c-19.059,0-27.309-10.064-27.309-32.094s8.003-31.93,27.309-31.93
		c19.389,0,27.227,9.9,27.227,31.93C882.225,254.968,874.387,264.621,854.998,264.621z M854.998,213.056
		c-9.405,0-12.705,3.795-12.705,19.471s3.382,19.637,12.788,19.637c9.322,0,12.623-4.043,12.623-19.637
		C867.704,216.851,864.486,213.056,854.998,213.056z"/>
	<path fill="#E30613" d="M931.23,250.925l-0.33,12.541h-39.189v-61.879h14.026v49.338H931.23z"/>
	<path fill="#E30613" d="M973.802,251.419H951.36l-3.465,12.047H933.21l21.368-61.879h16.584l21.616,61.879h-15.511L973.802,251.419
		z M960.932,218.583l-6.188,21.203h15.759l-5.94-21.203l-1.65-6.518h-0.247L960.932,218.583z"/>
</g>
</svg>
